# xmcd
#
# Track frame offsets:
#	150
#	7875
#	14175
#	20475
#	27000
#	31725
#	38925
#	44850
#	52200
#	59025
#	69075
#	76200
#	86025
#	92025
#	99000
#	106500
#	114975
#	123675
#	132150
#	137925
#	145050
#	155775
#	160275
#	165675
#	171450
#	176025
#	181950
#	190350
#	195300
#	196125
#	197100
#	198150
#	208350
#	217500
#	233625
#	241575
#	246975
#
# Disc length: 3410 seconds
#
# Revision: 1
# Processed by: cddbd v1.5.1PL0 Copyright (c) Steve Scherf et al.
# Submitted via: CDex 1.50Beta5
#
DISCID=060d5025
DTITLE=らいむ隊 - らいむいろ戦奇譚
DYEAR=1900
DGENRE=Anime
TTITLE0=凛花 TV Ver.
TTITLE1=新太郎マーチ
TTITLE2=一瞬（ひととき）の平和
TTITLE3=終わりなき戦い
TTITLE4=独立第零師団
TTITLE5=ロシア零軍団参上！
TTITLE6=三獣士
TTITLE7=危機到来
TTITLE8=礼武、勝利せよ！
TTITLE9=木綿のテーマ
TTITLE10=更沙のテーマ
TTITLE11=麻のテーマ
TTITLE12=絹のテーマ
TTITLE13=綸子のテーマ
TTITLE14=乙女心
TTITLE15=乙女たちの集い
TTITLE16=失われし魂
TTITLE17=漂いながら
TTITLE18=九鬼様
TTITLE19=ソフィアのテーマ
TTITLE20=哀愁の彼方
TTITLE21=快悦の刻（とき）
TTITLE22=記憶の糸
TTITLE23=絶体絶命！？
TTITLE24=花の宴
TTITLE25=幻想の中で
TTITLE26=愛の衣擦れ
TTITLE27=和国
TTITLE28=アイキャッチＡ
TTITLE29=アイキャッチＢ
TTITLE30=アイキャッチＣ
TTITLE31=勇戦奮闘
TTITLE32=敗色濃厚
TTITLE33=特務戦艦天乃原、発進！
TTITLE34=戦艦浮上
TTITLE35=最終戦突入！！
TTITLE36=Ｅｔｅｒｎａｌ Short Ver.
EXTD=
EXTT0=
EXTT1=
EXTT2=
EXTT3=
EXTT4=
EXTT5=
EXTT6=
EXTT7=
EXTT8=
EXTT9=
EXTT10=
EXTT11=
EXTT12=
EXTT13=
EXTT14=
EXTT15=
EXTT16=
EXTT17=
EXTT18=
EXTT19=
EXTT20=
EXTT21=
EXTT22=
EXTT23=
EXTT24=
EXTT25=
EXTT26=
EXTT27=
EXTT28=
EXTT29=
EXTT30=
EXTT31=
EXTT32=
EXTT33=
EXTT34=
EXTT35=
EXTT36=
PLAYORDER=
